# Blender v2.78 (sub 0) OBJ File: 'Tree.blend'
# www.blender.org
mtllib Pine.mtl
o Plane.003
v 0.098388 0.408973 -0.004559
v 0.098388 0.000633 -0.004559
v -0.095120 0.408973 -0.004020
v -0.095120 0.000633 -0.004020
v -0.095120 0.408973 -0.004020
v 0.098388 0.408973 -0.004559
v 0.098388 0.000633 -0.004559
v -0.095120 0.000633 -0.004020
v 0.000608 0.000633 -0.101038
v 0.002660 0.000633 0.092459
v 0.002660 0.408973 0.092459
v 0.000608 0.408973 -0.101038
v 0.000608 0.000633 -0.101038
v 0.000608 0.408973 -0.101038
v 0.002660 0.000633 0.092459
v 0.002660 0.408973 0.092459
vt 0.2157 0.9906
vt 0.7595 0.9906
vt 0.7595 0.0054
vt 0.2157 0.0054
vt 0.2157 0.9906
vt 0.2157 0.0054
vt 0.7595 0.0054
vt 0.7595 0.9906
vt 0.2157 0.0054
vt 0.7595 0.0054
vt 0.7595 0.0054
vt 0.2157 0.0054
vt 0.2157 0.9906
vt 0.7595 0.9906
vt 0.2157 0.9906
vt 0.7595 0.9906
vn 0.0028 0.0000 1.0000
vn -0.0028 -0.0000 -1.0000
vn 0.0000 0.0000 1.0000
vn -0.9999 0.0000 0.0106
vn 0.9999 -0.0000 -0.0106
usemtl None
s off
f 1/1/1 3/2/1 4/3/1 2/4/1
f 6/5/2 7/6/2 8/7/2 5/8/2
f 4/3/3 3/2/3 5/8/3 8/7/3
f 1/1/3 2/4/3 7/6/3 6/5/3
f 2/4/3 4/3/3 8/7/3 7/6/3
f 3/2/3 1/1/3 6/5/3 5/8/3
f 15/9/3 13/10/3 9/11/3 10/12/3
f 16/13/4 14/14/4 13/10/4 15/9/4
f 11/15/5 10/12/5 9/11/5 12/16/5
f 16/13/3 15/9/3 10/12/3 11/15/3
f 13/10/3 14/14/3 12/16/3 9/11/3
f 14/14/3 16/13/3 11/15/3 12/16/3
